<svg width="294" height="74" viewBox="0 0 294 74" fill="none" xmlns="http://www.w3.org/2000/svg">
<path d="M293.5 0.5L280.37 26.2087L264.671 1.98348L293.5 0.5ZM282.505 10.741C279.779 12.5763 277.057 14.4288 274.33 16.2905L271.511 12.1613C274.241 10.2971 276.974 8.43762 279.712 6.59361L282.505 10.741ZM266.162 21.874C263.439 23.7329 260.707 25.5916 257.961 27.4397L255.169 23.2917C257.902 21.4524 260.624 19.6006 263.343 17.7445L266.162 21.874ZM249.692 32.9339C246.923 34.7456 244.134 36.5383 241.321 38.3026L238.665 34.0666C241.447 32.3221 244.208 30.5471 246.954 28.75L249.692 32.9339ZM232.82 43.4896C229.966 45.1793 227.082 46.8318 224.162 48.4379L221.752 44.057C224.621 42.4787 227.46 40.8526 230.272 39.1872L232.82 43.4896ZM215.325 53.0906C212.357 54.5812 209.349 56.0173 206.295 57.3898L204.245 52.8293C207.229 51.488 210.173 50.0829 213.081 48.6224L215.325 53.0906ZM197.065 61.2794C193.973 62.4944 190.833 63.6394 187.64 64.7061L186.056 59.9636C189.163 58.9256 192.222 57.8104 195.236 56.6259L197.065 61.2794ZM178.049 67.6199C174.856 68.4936 171.608 69.286 168.303 69.9896L167.262 65.0991C170.472 64.416 173.626 63.6462 176.729 62.7971L178.049 67.6199ZM158.433 71.7916C155.171 72.2893 151.852 72.6994 148.474 73.0155L148.008 68.0372C151.289 67.7303 154.512 67.332 157.679 66.8488L158.433 71.7916ZM138.463 73.6639C135.178 73.7835 131.837 73.8145 128.437 73.7517L128.53 68.7526C131.838 68.8137 135.088 68.7835 138.281 68.6673L138.463 73.6639ZM118.428 73.3031C115.159 73.0718 111.838 72.7551 108.461 72.3487L109.058 67.3845C112.355 67.7813 115.595 68.0901 118.781 68.3156L118.428 73.3031ZM98.5535 70.9226C95.3246 70.3829 92.0461 69.7628 88.7161 69.0591L89.7498 64.1671C93.0117 64.8564 96.2204 65.4632 99.3779 65.991L98.5535 70.9226ZM78.9501 66.7903C75.7921 65.9916 72.589 65.1194 69.339 64.171L70.7395 59.3712C73.9329 60.303 77.0779 61.1594 80.1761 61.943L78.9501 66.7903ZM59.8456 61.2264C56.747 60.2092 53.6068 59.1245 50.4237 57.9702L52.1284 53.2697C55.2644 54.407 58.3562 55.4749 61.405 56.4758L59.8456 61.2264ZM41.0536 54.4185C38.0328 53.2247 34.9742 51.9697 31.877 50.6519L33.8346 46.0511C36.8929 47.3523 39.9115 48.5909 42.8912 49.7684L41.0536 54.4185ZM22.7922 46.6555C19.8021 45.2977 16.7768 43.8827 13.7154 42.4091L15.8839 37.9039C18.9125 39.3617 21.9041 40.7608 24.8595 42.1029L22.7922 46.6555ZM4.85397 38.0304C3.3604 37.2735 1.85842 36.503 0.347962 35.7187L2.65204 31.2813C4.14804 32.058 5.63536 32.821 7.11407 33.5703L4.85397 38.0304Z" fill="white"/>
</svg>
