<svg width="44" height="48" viewBox="0 0 44 48" fill="none" xmlns="http://www.w3.org/2000/svg">
<path d="M42.51 11.238L23.26 0.698635C22.8737 0.487255 22.4404 0.376465 22 0.376465C21.5596 0.376465 21.1263 0.487255 20.74 0.698635L1.49 11.238C1.07704 11.464 0.732441 11.7968 0.492292 12.2017C0.252143 12.6065 0.125283 13.0685 0.125 13.5393V34.4605C0.125283 34.9312 0.252143 35.3932 0.492292 35.7981C0.732441 36.203 1.07704 36.5358 1.49 36.7618L20.74 47.3011C21.126 47.5135 21.5594 47.6248 22 47.6248C22.4406 47.6248 22.874 47.5135 23.26 47.3011L42.51 36.7618C42.923 36.5358 43.2676 36.203 43.5077 35.7981C43.7479 35.3932 43.8747 34.9312 43.875 34.4605V13.5393C43.8747 13.0685 43.7479 12.6065 43.5077 12.2017C43.2676 11.7968 42.923 11.464 42.51 11.238ZM21.58 2.23426C21.7084 2.16261 21.853 2.125 22 2.125C22.147 2.125 22.2916 2.16261 22.42 2.23426L41.3966 12.6249L33.0469 17.1946C33.0072 17.1617 32.9648 17.1324 32.92 17.1071L13.67 6.5677L21.58 2.23426ZM22 23.2343L2.60344 12.6249L11.8412 7.5652L31.2378 18.1833L22 23.2343ZM2.33 35.2218C2.19256 35.1466 2.07784 35.0358 1.9978 34.9012C1.91777 34.7665 1.87536 34.6128 1.875 34.4561V14.2196L21.125 24.7546V45.5161L2.33 35.2218ZM41.67 35.2218L22.875 45.503V24.7546L31.625 19.9661V29.2499C31.625 29.4819 31.7172 29.7045 31.8813 29.8686C32.0454 30.0327 32.2679 30.1249 32.5 30.1249C32.7321 30.1249 32.9546 30.0327 33.1187 29.8686C33.2828 29.7045 33.375 29.4819 33.375 29.2499V19.008L42.125 14.2196V34.4605C42.1246 34.6172 42.0822 34.7709 42.0022 34.9055C41.9222 35.0402 41.8074 35.1509 41.67 35.2261V35.2218Z" fill="#242424"/>
</svg>
