<svg width="48" height="43" viewBox="0 0 48 43" fill="none" xmlns="http://www.w3.org/2000/svg">
<path d="M24.875 22.25V34.5C24.875 34.732 24.7828 34.9546 24.6187 35.1187C24.4546 35.2828 24.2321 35.375 24 35.375C23.768 35.375 23.5454 35.2828 23.3813 35.1187C23.2172 34.9546 23.125 34.732 23.125 34.5V22.25C23.125 22.0179 23.2172 21.7953 23.3813 21.6313C23.5454 21.4672 23.768 21.375 24 21.375C24.2321 21.375 24.4546 21.4672 24.6187 21.6313C24.7828 21.7953 24.875 22.0179 24.875 22.25ZM35.6375 21.375C35.5232 21.3635 35.4077 21.3746 35.2977 21.4078C35.1877 21.4409 35.0852 21.4954 34.9963 21.5681C34.9073 21.6408 34.8335 21.7304 34.7791 21.8316C34.7248 21.9328 34.6909 22.0438 34.6794 22.1581L33.4544 34.4081C33.4417 34.5231 33.4519 34.6395 33.4845 34.7506C33.517 34.8616 33.5713 34.9651 33.6441 35.055C33.717 35.1449 33.8069 35.2195 33.9088 35.2744C34.0106 35.3293 34.1224 35.3635 34.2375 35.375H34.3272C34.5449 35.3761 34.7551 35.296 34.9169 35.1504C35.0787 35.0047 35.1804 34.8041 35.2022 34.5875L36.4272 22.3375C36.4393 22.2223 36.4284 22.1059 36.3951 21.9949C36.3618 21.884 36.3069 21.7808 36.2334 21.6913C36.16 21.6017 36.0695 21.5277 35.9672 21.4734C35.8649 21.4191 35.7528 21.3856 35.6375 21.375ZM12.3625 21.375C12.2482 21.3865 12.1372 21.4204 12.036 21.4747C11.9348 21.5291 11.8452 21.6029 11.7725 21.6918C11.6998 21.7808 11.6453 21.8832 11.6122 21.9933C11.579 22.1033 11.5679 22.2188 11.5794 22.3331L12.8044 34.5831C12.8262 34.7997 12.9279 35.0004 13.0897 35.146C13.2515 35.2916 13.4617 35.3717 13.6794 35.3706H13.7691C13.8834 35.3591 13.9944 35.3252 14.0956 35.2708C14.1968 35.2165 14.2864 35.1427 14.3591 35.0537C14.4318 34.9648 14.4863 34.8623 14.5194 34.7523C14.5526 34.6423 14.5637 34.5268 14.5522 34.4125L13.3272 22.1625C13.3163 22.0471 13.2826 21.9351 13.228 21.8329C13.1735 21.7307 13.0992 21.6404 13.0094 21.5671C12.9197 21.4939 12.8163 21.4392 12.7052 21.4062C12.5942 21.3732 12.4777 21.3626 12.3625 21.375ZM47.625 15.3659L44.3197 40.0978C44.2355 40.728 43.9254 41.3062 43.447 41.725C42.9687 42.1438 42.3546 42.3748 41.7188 42.375H6.28127C5.64548 42.3748 5.03138 42.1438 4.55302 41.725C4.07467 41.3062 3.76457 40.728 3.68033 40.0978L0.375018 15.3659C0.359959 15.2417 0.371692 15.1158 0.409427 14.9966C0.447162 14.8773 0.510021 14.7676 0.593768 14.6747C0.675563 14.5809 0.776406 14.5057 0.889569 14.454C1.00273 14.4024 1.12561 14.3754 1.25002 14.375H11.3519L23.3438 0.67466C23.4259 0.581554 23.5269 0.506986 23.64 0.45591C23.7532 0.404834 23.8759 0.378418 24 0.378418C24.1242 0.378418 24.2469 0.404834 24.36 0.45591C24.4732 0.506986 24.5742 0.581554 24.6563 0.67466L36.6481 14.375H46.75C46.8744 14.3754 46.9973 14.4024 47.1105 14.454C47.2236 14.5057 47.3245 14.5809 47.4063 14.6747C47.49 14.7676 47.5529 14.8773 47.5906 14.9966C47.6283 15.1158 47.6401 15.2417 47.625 15.3659ZM13.6794 14.375H34.3206L24 2.57779L13.6794 14.375ZM45.7503 16.125H2.24971L5.40627 39.8659C5.43452 40.0773 5.53905 40.2712 5.70018 40.411C5.86131 40.5507 6.06796 40.6269 6.28127 40.625H41.7188C41.9321 40.6269 42.1387 40.5507 42.2999 40.411C42.461 40.2712 42.5655 40.0773 42.5938 39.8659L45.7503 16.125Z" fill="#242424"/>
</svg>
