<svg width="40" height="33" viewBox="0 0 40 33" fill="none" xmlns="http://www.w3.org/2000/svg">
<path d="M33.955 14.4613C33.8347 14.4198 33.7041 14.4318 33.5919 14.4947C33.4797 14.5576 33.3952 14.6661 33.357 14.7964C33.3187 14.9267 33.3298 15.0682 33.3879 15.1896C33.4459 15.3111 33.5461 15.4026 33.6665 15.444C37.3883 16.7279 39.0482 18.643 39.0482 21.6563C39.0482 24.3365 36.7902 26.4166 35.4455 27.4189C35.3818 27.4663 35.3297 27.5297 35.2937 27.6037C35.2577 27.6778 35.2389 27.7602 35.2388 27.8438V31.7863C34.0953 31.3168 33.0738 30.5542 32.2618 29.564C32.207 29.4971 32.1371 29.4469 32.0589 29.4182C31.9808 29.3894 31.8971 29.3832 31.8161 29.4C31.5446 29.4567 31.2675 29.5371 30.9866 29.6186C30.5009 29.7599 29.9999 29.9063 29.5247 29.9063C27.079 29.9063 25.3667 29.3371 23.6163 27.9439C23.5145 27.8628 23.3871 27.8288 23.2622 27.8494C23.1373 27.87 23.025 27.9435 22.9501 28.0537C22.8752 28.1639 22.8438 28.3018 22.8629 28.4371C22.8819 28.5724 22.9497 28.694 23.0515 28.775C24.982 30.3116 26.8571 30.9376 29.5247 30.9376C30.1256 30.9376 30.6894 30.7736 31.2342 30.6148C31.4037 30.5632 31.5719 30.5158 31.7389 30.4725C33.5189 32.5082 35.5322 32.9712 35.6198 32.9898C35.6889 33.005 35.7604 33.0033 35.8289 32.985C35.8974 32.9666 35.9613 32.932 36.0159 32.8836C36.0706 32.8353 36.1147 32.7744 36.145 32.7054C36.1754 32.6363 36.1911 32.5609 36.1912 32.4845V28.113C38.6502 26.2144 40.0006 23.9292 40.0006 21.6563C40.0006 18.1696 38.0797 15.8833 33.955 14.4613Z" fill="#242424"/>
<path d="M31.4277 13.9219C31.4277 5.98539 24.7441 0 15.8824 0C6.976 0 0 6.11636 0 13.924C0 18.6048 3.05801 21.9585 5.71413 23.988V30.8314C5.71462 30.9173 5.73485 31.0017 5.77298 31.077C5.81111 31.1523 5.86595 31.2162 5.93256 31.2628C5.99916 31.3095 6.07544 31.3375 6.15452 31.3442C6.2336 31.351 6.31299 31.3364 6.38554 31.3016C6.52459 31.2346 9.77497 29.6351 12.5559 26.3423C13.7606 26.5847 15.1234 26.8177 16.3596 26.8177C25.3717 26.8177 31.4277 21.6347 31.4277 13.9219ZM16.3586 25.7865C15.111 25.7865 13.693 25.5276 12.4701 25.275C12.3891 25.2592 12.3057 25.2659 12.2277 25.2946C12.1498 25.3233 12.0798 25.373 12.0244 25.439C10.0721 27.8232 7.77789 29.3381 6.66649 29.9909V23.7188C6.66646 23.6352 6.64763 23.5528 6.61162 23.4787C6.57562 23.4047 6.52352 23.3413 6.45983 23.2939C3.94751 21.4222 0.952355 18.279 0.952355 13.924C0.952355 6.69386 7.51027 1.03125 15.8824 1.03125C24.2022 1.03125 30.4754 6.57321 30.4754 13.9219C30.4754 21.019 24.8022 25.7865 16.3586 25.7865Z" fill="#242424"/>
<path d="M15.7138 11.8594C14.6633 11.8594 13.8091 12.7844 13.8091 13.9219C13.8091 15.0594 14.6633 15.9844 15.7138 15.9844C16.7642 15.9844 17.6185 15.0594 17.6185 13.9219C17.6185 12.7844 16.7642 11.8594 15.7138 11.8594ZM15.7138 14.9531C15.4686 14.9413 15.237 14.8274 15.0674 14.6353C14.8977 14.4432 14.8031 14.1877 14.8031 13.9219C14.8031 13.6561 14.8977 13.4005 15.0674 13.2084C15.237 13.0163 15.4686 12.9025 15.7138 12.8906C15.959 12.9025 16.1905 13.0163 16.3602 13.2084C16.5298 13.4005 16.6245 13.6561 16.6245 13.9219C16.6245 14.1877 16.5298 14.4432 16.3602 14.6353C16.1905 14.8274 15.959 14.9413 15.7138 14.9531ZM22.3803 11.8594C21.3298 11.8594 20.4755 12.7844 20.4755 13.9219C20.4755 15.0594 21.3298 15.9844 22.3803 15.9844C23.4307 15.9844 24.285 15.0594 24.285 13.9219C24.285 12.7844 23.4307 11.8594 22.3803 11.8594ZM22.3803 14.9531C22.135 14.9413 21.9035 14.8274 21.7339 14.6353C21.5642 14.4432 21.4696 14.1877 21.4696 13.9219C21.4696 13.6561 21.5642 13.4005 21.7339 13.2084C21.9035 13.0163 22.135 12.9025 22.3803 12.8906C22.6255 12.9025 22.857 13.0163 23.0266 13.2084C23.1963 13.4005 23.291 13.6561 23.291 13.9219C23.291 14.1877 23.1963 14.4432 23.0266 14.6353C22.857 14.8274 22.6255 14.9413 22.3803 14.9531ZM9.04729 11.9573C7.99684 11.9573 7.14258 12.8824 7.14258 14.0199C7.14258 15.1573 7.99684 16.0824 9.04729 16.0824C10.0977 16.0824 10.952 15.1573 10.952 14.0199C10.952 12.8824 10.0977 11.9573 9.04729 11.9573ZM9.04729 15.0511C8.80208 15.0392 8.57054 14.9254 8.4009 14.7333C8.23126 14.5412 8.13658 14.2856 8.13658 14.0199C8.13658 13.7541 8.23126 13.4985 8.4009 13.3064C8.57054 13.1143 8.80208 13.0005 9.04729 12.9886C9.2925 13.0005 9.52403 13.1143 9.69368 13.3064C9.86332 13.4985 9.95799 13.7541 9.95799 14.0199C9.95799 14.2856 9.86332 14.5412 9.69368 14.7333C9.52403 14.9254 9.2925 15.0392 9.04729 15.0511Z" fill="#242424"/>
</svg>
