<svg width="160" height="29" viewBox="0 0 160 29" fill="none" xmlns="http://www.w3.org/2000/svg">
<path d="M3.86468 13.8927V19.8059H14.0653V23.7374H0V0.851599H13.5921V4.7831H3.86468V9.96119H12.8823V13.8927H3.86468Z" fill="#BBD708"/>
<path d="M31.3734 7.75571H27.7454C27.6227 5.43303 26.3082 4.27169 23.8018 4.27169C22.8028 4.27169 22.0053 4.51674 21.4094 5.00685C20.831 5.49696 20.5418 6.15753 20.5418 6.98858C20.5418 7.79833 20.7872 8.40563 21.2779 8.8105C21.7687 9.21537 22.7151 9.57763 24.1173 9.89726L27.0618 10.5685C28.797 10.9734 30.0589 11.6659 30.8476 12.6461C31.6363 13.6263 32.0307 15.0114 32.0307 16.8014C32.0307 19.2519 31.2595 21.1164 29.7171 22.395C28.3851 23.5244 26.5886 24.089 24.3276 24.089C21.7512 24.089 19.7881 23.3645 18.4386 21.9155C17.2643 20.6583 16.6245 18.911 16.5194 16.6735H20.2789C20.4191 19.1027 21.83 20.3174 24.5116 20.3174C25.7035 20.3174 26.6324 20.0616 27.2984 19.5502C27.982 19.0175 28.3237 18.293 28.3237 17.3767C28.3237 16.4817 28.0521 15.7892 27.5087 15.2991C26.9829 14.809 26.0715 14.4148 24.7745 14.1164L22.1455 13.5091C20.2351 13.083 18.868 12.4117 18.0442 11.4954C17.238 10.5578 16.8349 9.21537 16.8349 7.46804C16.8349 5.10274 17.5447 3.31279 18.9644 2.09817C20.1913 1.03272 21.8563 0.5 23.9595 0.5C26.5009 0.5 28.4114 1.2032 29.6908 2.60959C30.795 3.84551 31.3559 5.56088 31.3734 7.75571Z" fill="#BBD708"/>
<path d="M43.6582 26.4543V28.5H33.3787V26.4543H43.6582Z" fill="white"/>
<path d="M49.9098 5.93379V23.7374H46.0451V0.851599H51.829L55.2467 19.0708L58.533 0.851599H64.3695V23.7374H60.5048V5.93379L57.1659 23.7374H53.3012L49.9098 5.93379Z" fill="white"/>
<path d="M76.9297 0.5C79.5938 0.5 81.732 1.53349 83.3445 3.60046C85.0972 5.8379 85.9736 8.73592 85.9736 12.2945C85.9736 15.8105 85.0972 18.7085 83.3445 20.9886C81.7496 23.0556 79.6113 24.089 76.9297 24.089C74.2305 24.089 72.0835 23.0556 70.4885 20.9886C68.7359 18.7085 67.8595 15.8105 67.8595 12.2945C67.8595 8.77854 68.7359 5.88052 70.4885 3.60046C72.101 1.53349 74.2481 0.5 76.9297 0.5ZM76.9297 4.5274C75.2471 4.5274 73.9238 5.32649 72.9598 6.92466C72.1361 8.30974 71.7242 10.0997 71.7242 12.2945C71.7242 14.809 72.2588 16.7801 73.3279 18.2078C74.2568 19.4437 75.4574 20.0616 76.9297 20.0616C78.6123 20.0616 79.9268 19.2626 80.8732 17.6644C81.697 16.2793 82.1089 14.4893 82.1089 12.2945C82.1089 9.78006 81.5743 7.80898 80.5052 6.38128C79.5762 5.14536 78.3844 4.5274 76.9297 4.5274Z" fill="white"/>
<path d="M97.5302 4.7831V23.7374H93.6655V4.7831H87.9342V0.851599H102.999V4.7831H97.5302Z" fill="white"/>
<path d="M114.028 0.5C116.692 0.5 118.83 1.53349 120.443 3.60046C122.195 5.8379 123.072 8.73592 123.072 12.2945C123.072 15.8105 122.195 18.7085 120.443 20.9886C118.848 23.0556 116.709 24.089 114.028 24.089C111.329 24.089 109.182 23.0556 107.587 20.9886C105.834 18.7085 104.958 15.8105 104.958 12.2945C104.958 8.77854 105.834 5.88052 107.587 3.60046C109.199 1.53349 111.346 0.5 114.028 0.5ZM114.028 4.5274C112.345 4.5274 111.022 5.32649 110.058 6.92466C109.234 8.30974 108.822 10.0997 108.822 12.2945C108.822 14.809 109.357 16.7801 110.426 18.2078C111.355 19.4437 112.556 20.0616 114.028 20.0616C115.71 20.0616 117.025 19.2626 117.971 17.6644C118.795 16.2793 119.207 14.4893 119.207 12.2945C119.207 9.78006 118.672 7.80898 117.603 6.38128C116.674 5.14536 115.483 4.5274 114.028 4.5274Z" fill="white"/>
<path d="M130.422 14.6598V23.7374H126.557V0.851599H136.653C138.248 0.851599 139.466 1.37367 140.307 2.41781C141.254 3.5898 141.727 5.1347 141.727 7.05251C141.727 9.82268 140.658 11.7085 138.519 12.71C139.729 13.2854 140.465 13.9992 140.728 14.8516C140.921 15.4696 141.061 17.5259 141.148 21.0205C141.166 21.8942 141.438 22.5122 141.963 22.8744V23.7374H137.809C137.424 22.8638 137.231 21.5746 137.231 19.8699C137.231 19.4437 137.24 18.9216 137.257 18.3037C137.257 17.8775 137.257 17.5685 137.257 17.3767C137.257 15.5654 136.46 14.6598 134.865 14.6598H130.422ZM130.422 10.7283H135.102C136.083 10.7283 136.767 10.5365 137.152 10.153C137.625 9.66286 137.862 8.85312 137.862 7.72374C137.862 6.63699 137.625 5.85921 137.152 5.39041C136.749 4.98554 136.066 4.7831 135.102 4.7831H130.422V10.7283Z" fill="white"/>
<path d="M159.343 7.75571H155.715C155.592 5.43303 154.277 4.27169 151.771 4.27169C150.772 4.27169 149.975 4.51674 149.379 5.00685C148.8 5.49696 148.511 6.15753 148.511 6.98858C148.511 7.79833 148.756 8.40563 149.247 8.8105C149.738 9.21537 150.684 9.57763 152.087 9.89726L155.031 10.5685C156.766 10.9734 158.028 11.6659 158.817 12.6461C159.606 13.6263 160 15.0114 160 16.8014C160 19.2519 159.229 21.1164 157.686 22.395C156.354 23.5244 154.558 24.089 152.297 24.089C149.72 24.089 147.757 23.3645 146.408 21.9155C145.234 20.6583 144.594 18.911 144.489 16.6735H148.248C148.388 19.1027 149.799 20.3174 152.481 20.3174C153.673 20.3174 154.602 20.0616 155.268 19.5502C155.951 19.0175 156.293 18.293 156.293 17.3767C156.293 16.4817 156.021 15.7892 155.478 15.2991C154.952 14.809 154.041 14.4148 152.744 14.1164L150.115 13.5091C148.204 13.083 146.837 12.4117 146.014 11.4954C145.207 10.5578 144.804 9.21537 144.804 7.46804C144.804 5.10274 145.514 3.31279 146.934 2.09817C148.161 1.03272 149.826 0.5 151.929 0.5C154.47 0.5 156.381 1.2032 157.66 2.60959C158.764 3.84551 159.325 5.56088 159.343 7.75571Z" fill="white"/>
</svg>
