<svg width="257" height="59" viewBox="0 0 257 59" fill="none" xmlns="http://www.w3.org/2000/svg">
<path d="M2.26042 0.350564C1.90174 -0.0694025 1.27053 -0.11909 0.850564 0.239584C0.430598 0.598258 0.38091 1.22947 0.739584 1.64944L2.26042 0.350564ZM257 1L245.788 3.76074L253.785 12.0904L257 1ZM0.739584 1.64944C0.960669 1.9083 1.18207 2.16617 1.40377 2.42303L2.91781 1.11624C2.69838 0.862013 2.47925 0.606788 2.26042 0.350564L0.739584 1.64944ZM2.7377 3.95226C3.18357 4.45802 3.63065 4.95981 4.07894 5.45763L5.56517 4.1193C5.12159 3.62671 4.67918 3.13018 4.23795 2.62967L2.7377 3.95226ZM5.4274 6.93926C5.87808 7.42919 6.32994 7.91518 6.78297 8.39725L8.2404 7.02761C7.79225 6.55074 7.34523 6.06995 6.89935 5.58524L5.4274 6.93926ZM8.14554 9.83171C8.61519 10.3208 9.08606 10.8058 9.55813 11.2867L10.9853 9.88556C10.5184 9.41001 10.0527 8.93034 9.5882 8.44653L8.14554 9.83171ZM10.9834 12.7223C11.4597 13.1967 11.9372 13.667 12.4159 14.1331L13.8112 12.7002C13.3379 12.2394 12.8658 11.7744 12.3948 11.3053L10.9834 12.7223ZM13.8554 15.5191C14.3363 15.977 14.8185 16.4308 15.3018 16.8805L16.6642 15.4164C16.1865 14.9719 15.7099 14.5233 15.2344 14.0706L13.8554 15.5191ZM16.7772 18.2377C17.2786 18.6935 17.7812 19.145 18.2849 19.5922L19.6127 18.0965C19.1149 17.6546 18.6182 17.2083 18.1226 16.7578L16.7772 18.2377ZM19.7997 20.9208C20.3057 21.3594 20.8129 21.7938 21.3213 22.2238L22.613 20.6969C22.1108 20.272 21.6096 19.8429 21.1095 19.4095L19.7997 20.9208ZM22.8496 23.5012C23.3635 23.9255 23.8785 24.3454 24.3946 24.7611L25.6492 23.2036C25.1394 22.7929 24.6306 22.3781 24.123 21.9589L22.8496 23.5012ZM25.9818 26.0235C26.512 26.4398 27.0433 26.8517 27.5758 27.2592L28.7912 25.6709C28.2654 25.2685 27.7406 24.8617 27.217 24.4505L25.9818 26.0235ZM29.1763 28.4683C29.7109 28.867 30.2466 29.2612 30.7834 29.6511L31.9588 28.0329C31.4288 27.648 30.8998 27.2587 30.3719 26.865L29.1763 28.4683ZM32.4019 30.8112C32.955 31.2025 33.5091 31.5891 34.0644 31.9712L35.1981 30.3236C34.65 29.9464 34.1029 29.5647 33.5568 29.1784L32.4019 30.8112ZM35.7332 33.1037C36.2905 33.4767 36.8489 33.8452 37.4082 34.2091L38.499 32.5328C37.9469 32.1735 37.3957 31.8098 36.8456 31.4416L35.7332 33.1037ZM39.0893 35.2875C39.6527 35.6438 40.217 35.9955 40.7824 36.3428L41.8292 34.6386C41.2713 34.2959 40.7143 33.9488 40.1583 33.5972L39.0893 35.2875ZM42.5146 37.3911C43.093 37.7359 43.6723 38.0761 44.2526 38.4116L45.2538 36.6803C44.6812 36.3491 44.1095 36.0135 43.5387 35.6732L42.5146 37.3911ZM45.9964 39.4046C46.5786 39.731 47.1617 40.0528 47.7457 40.3701L48.7005 38.6127C48.1243 38.2997 47.5489 37.9821 46.9745 37.6601L45.9964 39.4046ZM49.5109 41.3139C50.1084 41.6283 50.7069 41.938 51.3062 42.243L52.2133 40.4605C51.622 40.1596 51.0316 39.8541 50.4421 39.5439L49.5109 41.3139ZM53.1067 43.1441C53.7077 43.4398 54.3096 43.7308 54.9122 44.0173L55.7708 42.211C55.1763 41.9284 54.5826 41.6412 53.9896 41.3495L53.1067 43.1441ZM56.7227 44.8629C57.3325 45.1428 57.9432 45.418 58.5546 45.6885L59.3639 43.8596C58.7608 43.5927 58.1584 43.3212 57.5568 43.0452L56.7227 44.8629ZM60.4053 46.4925C61.023 46.7558 61.6414 47.0144 62.2606 47.2684L63.0197 45.418C62.4089 45.1675 61.7989 44.9124 61.1896 44.6526L60.4053 46.4925ZM64.1202 48.0165C64.7407 48.2613 65.3619 48.5014 65.9838 48.737L66.6924 46.8667C66.0789 46.6343 65.4661 46.3974 64.854 46.156L64.1202 48.0165ZM67.8743 49.4384C68.5063 49.668 69.139 49.8929 69.7723 50.1132L70.4294 48.2242C69.8047 48.0069 69.1806 47.785 68.5572 47.5586L67.8743 49.4384ZM71.6739 50.7602C72.3084 50.9712 72.9435 51.1777 73.579 51.3796L74.1845 49.4734C73.5575 49.2743 72.9311 49.0706 72.3052 48.8624L71.6739 50.7602ZM75.4929 51.9733C76.1369 52.1683 76.7814 52.3586 77.4265 52.5444L77.98 50.6225C77.3436 50.4392 76.7078 50.2514 76.0725 50.0591L75.4929 51.9733ZM79.363 53.0879C80.009 53.2645 80.6554 53.4365 81.3023 53.604L81.8036 51.6679C81.1654 51.5026 80.5277 51.3329 79.8904 51.1587L79.363 53.0879ZM83.2441 54.093C83.8959 54.2525 84.548 54.4074 85.2006 54.5579L85.6498 52.609C85.006 52.4605 84.3625 52.3077 83.7195 52.1503L83.2441 54.093ZM87.1649 54.9968C87.82 55.1386 88.4754 55.2759 89.1311 55.4088L89.5282 53.4486C88.8812 53.3175 88.2344 53.182 87.588 53.0421L87.1649 54.9968ZM91.0992 55.7939C91.7563 55.918 92.4136 56.0377 93.0712 56.1529L93.4165 54.1829C92.7675 54.0692 92.1188 53.9511 91.4703 53.8287L91.0992 55.7939ZM95.0564 56.4874C95.7183 56.5944 96.3805 56.6971 97.0428 56.7953L97.3363 54.817C96.6826 54.72 96.029 54.6187 95.3757 54.513L95.0564 56.4874ZM99.0301 57.077C99.6927 57.1665 100.355 57.2517 101.018 57.3326L101.261 55.3473C100.606 55.2674 99.952 55.1834 99.2979 55.095L99.0301 57.077ZM103.014 57.5631C103.681 57.6358 104.348 57.7041 105.014 57.7682L105.206 55.7774C104.548 55.7141 103.889 55.6466 103.231 55.5749L103.014 57.5631ZM107.015 57.9476C107.681 58.0032 108.348 58.0545 109.015 58.1016L109.156 56.1066C108.497 56.06 107.839 56.0094 107.181 55.9545L107.015 57.9476ZM111.016 58.2305C111.686 58.2694 112.355 58.3041 113.024 58.3346L113.115 56.3367C112.454 56.3065 111.794 56.2722 111.132 56.2338L111.016 58.2305ZM115.031 58.4138C115.7 58.436 116.369 58.4542 117.037 58.4682L117.079 56.4687C116.419 56.4548 115.758 56.4369 115.098 56.4149L115.031 58.4138ZM119.042 58.4982C119.712 58.5042 120.382 58.506 121.051 58.5039L121.045 56.5039C120.383 56.506 119.722 56.5042 119.06 56.4983L119.042 58.4982ZM123.06 58.4854C123.729 58.4752 124.398 58.4611 125.066 58.443L125.012 56.4437C124.352 56.4616 123.691 56.4756 123.029 56.4856L123.06 58.4854ZM127.071 58.3768C127.74 58.3508 128.408 58.3209 129.076 58.2871L128.975 56.2897C128.315 56.3231 127.654 56.3527 126.994 56.3783L127.071 58.3768ZM131.081 58.1739C131.749 58.1323 132.417 58.0869 133.084 58.0376L132.937 56.043C132.277 56.0917 131.617 56.1367 130.957 56.1778L131.081 58.1739ZM135.084 57.8784C135.75 57.8215 136.416 57.7609 137.081 57.6965L136.888 55.7058C136.23 55.7695 135.572 55.8294 134.914 55.8856L135.084 57.8784ZM139.078 57.4918C139.744 57.4198 140.409 57.3441 141.073 57.2648L140.836 55.2789C140.179 55.3574 139.521 55.4322 138.863 55.5034L139.078 57.4918ZM143.064 57.0157C143.727 56.929 144.389 56.8387 145.051 56.7448L144.77 54.7647C144.115 54.8575 143.46 54.9469 142.804 55.0326L143.064 57.0157ZM147.036 56.452C147.697 56.3508 148.358 56.2459 149.018 56.1376L148.694 54.164C148.041 54.2712 147.387 54.3749 146.733 54.4751L147.036 56.452ZM150.996 55.8019C151.655 55.6865 152.313 55.5676 152.97 55.4453L152.604 53.4791C151.954 53.6001 151.303 53.7177 150.651 53.8319L150.996 55.8019ZM154.939 55.0678C155.595 54.9383 156.251 54.8054 156.906 54.6691L156.499 52.7111C155.851 52.8459 155.202 52.9775 154.552 53.1056L154.939 55.0678ZM158.869 54.25C159.522 54.107 160.174 53.9606 160.825 53.8109L160.377 51.8617C159.733 52.0099 159.087 52.1548 158.441 52.2963L158.869 54.25ZM162.776 53.3519C163.427 53.1952 164.076 53.0354 164.725 52.8722L164.237 50.9327C163.595 51.0941 162.952 51.2524 162.308 51.4074L162.776 53.3519ZM166.669 52.3728C167.315 52.2031 167.961 52.0302 168.606 51.8541L168.079 49.9248C167.441 50.0991 166.801 50.2703 166.161 50.4383L166.669 52.3728ZM170.536 51.3164C171.179 51.1338 171.821 50.9481 172.462 50.7593L171.897 48.8409C171.262 49.0278 170.627 49.2117 169.99 49.3925L170.536 51.3164ZM174.385 50.1823C175.025 49.9869 175.663 49.7884 176.301 49.5869L175.698 47.68C175.067 47.8795 174.434 48.076 173.801 48.2695L174.385 50.1823ZM178.208 48.9733C178.843 48.7658 179.476 48.5553 180.108 48.3419L179.468 46.447C178.843 46.6584 178.215 46.8669 177.587 47.0724L178.208 48.9733ZM182.008 47.6899C182.64 47.4696 183.271 47.2464 183.9 47.0203L183.223 45.1381C182.6 45.3621 181.976 45.5831 181.35 45.8013L182.008 47.6899ZM185.783 46.3333C186.409 46.1015 187.034 45.8668 187.657 45.6293L186.945 43.7604C186.327 43.9957 185.709 44.2281 185.088 44.4578L185.783 46.3333ZM189.529 44.9059C190.152 44.6615 190.774 44.4143 191.394 44.1643L190.647 42.3092C190.032 42.5569 189.416 42.8017 188.799 43.0438L189.529 44.9059ZM193.25 43.4062C193.867 43.1508 194.483 42.8926 195.097 42.6318L194.314 40.7911C193.706 41.0495 193.097 41.3052 192.485 41.5583L193.25 43.4062ZM196.937 41.8397C197.551 41.5718 198.164 41.3012 198.775 41.028L197.958 39.2022C197.353 39.4729 196.746 39.7409 196.137 40.0064L196.937 41.8397ZM200.602 40.2006C201.209 39.9222 201.815 39.6412 202.418 39.3577L201.568 37.5475C200.97 37.8283 200.37 38.1067 199.769 38.3825L200.602 40.2006ZM204.224 38.4993C204.829 38.2085 205.432 37.915 206.033 37.6191L205.149 35.8249C204.554 36.1181 203.956 36.4088 203.357 36.697L204.224 38.4993ZM207.829 36.724C208.426 36.4231 209.021 36.1199 209.614 35.8141L208.697 34.0366C208.11 34.3395 207.52 34.64 206.929 34.938L207.829 36.724ZM211.386 34.8899C211.979 34.5771 212.57 34.2619 213.159 33.9443L212.209 32.184C211.626 32.4986 211.04 32.8109 210.453 33.1208L211.386 34.8899ZM214.922 32.9826C215.508 32.6597 216.091 32.3345 216.673 32.007L215.691 30.2645C215.115 30.589 214.537 30.9112 213.957 31.2311L214.922 32.9826ZM218.41 31.0177C218.99 30.6836 219.568 30.3472 220.144 30.0086L219.13 28.2847C218.559 28.6201 217.987 28.9534 217.412 29.2844L218.41 31.0177ZM221.872 28.9812C222.446 28.6366 223.017 28.2897 223.586 27.9407L222.54 26.236C221.977 26.5817 221.411 26.9254 220.842 27.2668L221.872 28.9812ZM225.285 26.8874C225.852 26.5323 226.416 26.1751 226.978 25.8158L225.9 24.131C225.344 24.4869 224.785 24.8407 224.223 25.1925L225.285 26.8874ZM228.668 24.7233C229.229 24.3571 229.787 23.9888 230.343 23.6185L229.233 21.9544C228.683 22.3212 228.13 22.686 227.575 23.0488L228.668 24.7233ZM232.001 22.5016C232.553 22.1257 233.103 21.7479 233.65 21.3681L232.509 19.7255C231.967 20.1016 231.423 20.4758 230.876 20.8481L232.001 22.5016ZM235.299 20.2108C235.846 19.823 236.389 19.4334 236.93 19.0419L235.758 17.4217C235.222 17.8094 234.683 18.1953 234.142 18.5793L235.299 20.2108ZM238.544 17.8618C239.081 17.465 239.615 17.0664 240.146 16.666L238.942 15.0692C238.416 15.4656 237.888 15.8603 237.356 16.2531L238.544 17.8618ZM241.75 15.4438C242.282 15.0346 242.81 14.6236 243.335 14.2109L242.099 12.6385C241.58 13.0471 241.057 13.454 240.53 13.8591L241.75 15.4438ZM244.901 12.9676C245.421 12.5496 245.939 12.1298 246.453 11.7084L245.186 10.1615C244.677 10.5786 244.164 10.994 243.649 11.4078L244.901 12.9676ZM248.008 10.4211C248.522 9.99033 249.033 9.55793 249.541 9.12395L248.241 7.60396C247.739 8.03337 247.233 8.46124 246.724 8.88751L248.008 10.4211ZM251.052 7.81734C251.556 7.37719 252.056 6.93549 252.552 6.49231L251.22 5.00043C250.729 5.43882 250.235 5.87576 249.736 6.31121L251.052 7.81734ZM254.051 5.13944C254.547 4.68699 255.038 4.23306 255.526 3.77772L254.162 2.31568C253.679 2.76593 253.193 3.21483 252.703 3.66232L254.051 5.13944Z" fill="#5B5B5B"/>
</svg>
