<svg width="20" height="21" viewBox="0 0 20 21" fill="none" xmlns="http://www.w3.org/2000/svg">
<path d="M10.0002 9.94444C10.7694 9.94444 11.5212 9.71636 12.1608 9.28904C12.8003 8.86172 13.2987 8.25436 13.5931 7.54376C13.8874 6.83316 13.9644 6.05123 13.8144 5.29686C13.6643 4.54249 13.2939 3.84956 12.7501 3.30569C12.2062 2.76182 11.5133 2.39144 10.7589 2.24138C10.0045 2.09133 9.22261 2.16834 8.512 2.46268C7.8014 2.75702 7.19404 3.25547 6.76672 3.895C6.33941 4.53452 6.11133 5.2864 6.11133 6.05555C6.11133 7.08694 6.52105 8.0761 7.25036 8.80541C7.97967 9.53471 8.96882 9.94444 10.0002 9.94444ZM10.0002 3.27777C10.5496 3.27777 11.0867 3.44068 11.5435 3.74591C12.0003 4.05114 12.3563 4.48496 12.5665 4.99254C12.7768 5.50011 12.8318 6.05863 12.7246 6.59746C12.6174 7.1363 12.3529 7.63125 11.9644 8.01973C11.5759 8.40821 11.081 8.67277 10.5421 8.77995C10.0033 8.88713 9.44478 8.83212 8.93721 8.62188C8.42963 8.41164 7.99581 8.0556 7.69058 7.5988C7.38535 7.14199 7.22244 6.60494 7.22244 6.05555C7.22244 5.31883 7.5151 4.6123 8.03603 4.09136C8.55697 3.57043 9.2635 3.27777 10.0002 3.27777Z" fill="#5B5B5B"/>
<path d="M16.9273 14.0389C16.0364 13.0973 14.9628 12.3472 13.7721 11.8346C12.5814 11.322 11.2987 11.0576 10.0023 11.0576C8.70601 11.0576 7.42328 11.322 6.2326 11.8346C5.04192 12.3472 3.96829 13.0973 3.07735 14.0389C2.88419 14.2453 2.77691 14.5174 2.77735 14.8001V17.7223C2.77735 18.017 2.89441 18.2996 3.10278 18.508C3.31116 18.7163 3.59377 18.8334 3.88846 18.8334H16.1107C16.4054 18.8334 16.688 18.7163 16.8964 18.508C17.1047 18.2996 17.2218 18.017 17.2218 17.7223V14.8001C17.2237 14.5182 17.1185 14.2461 16.9273 14.0389ZM16.1107 17.7223H3.88846V14.7945C4.6758 13.9654 5.62362 13.3052 6.67421 12.8541C7.7248 12.403 8.85621 12.1703 9.99957 12.1703C11.1429 12.1703 12.2743 12.403 13.3249 12.8541C14.3755 13.3052 15.3233 13.9654 16.1107 14.7945V17.7223Z" fill="#5B5B5B"/>
</svg>
