<svg width="17" height="17" viewBox="0 0 17 17" fill="none" xmlns="http://www.w3.org/2000/svg">
<path d="M15.6579 17C16.0138 17 16.3552 16.8586 16.6069 16.6069C16.8586 16.3552 17 16.0138 17 15.6579V12.5263C17 12.1704 16.8586 11.829 16.6069 11.5773C16.3552 11.3256 16.0138 11.1842 15.6579 11.1842C14.6111 11.1842 13.5821 11.0232 12.5979 10.6921C12.3626 10.6178 12.1114 10.6094 11.8717 10.6678C11.6319 10.7261 11.4127 10.849 11.2379 11.0232L9.94947 12.3116C7.72358 11.0969 5.89415 9.26747 4.67947 7.04158L5.95895 5.7621C6.32579 5.41316 6.46 4.89421 6.29895 4.39316C5.97684 3.41789 5.81579 2.38895 5.81579 1.34211C5.81579 0.986157 5.67439 0.644787 5.4227 0.393094C5.171 0.1414 4.82963 0 4.47368 0H1.34211C0.986157 0 0.644787 0.1414 0.393094 0.393094C0.1414 0.644787 0 0.986157 0 1.34211C0 9.97632 7.02368 17 15.6579 17ZM1.34211 0.894737H4.47368C4.59233 0.894737 4.70612 0.94187 4.79002 1.02577C4.87392 1.10967 4.92105 1.22346 4.92105 1.34211C4.92105 2.48737 5.1 3.60579 5.44895 4.67053C5.49368 4.79579 5.48474 4.97474 5.34158 5.11789L3.57895 6.87158C5.05526 9.76158 7.22053 11.9268 10.1195 13.4211L11.8642 11.6584C11.9895 11.5332 12.1595 11.4974 12.3205 11.5421C13.3942 11.9 14.5126 12.0789 15.6579 12.0789C15.7765 12.0789 15.8903 12.1261 15.9742 12.21C16.0581 12.2939 16.1053 12.4077 16.1053 12.5263V15.6579C16.1053 15.7765 16.0581 15.8903 15.9742 15.9742C15.8903 16.0581 15.7765 16.1053 15.6579 16.1053C7.51579 16.1053 0.894737 9.48421 0.894737 1.34211C0.894737 1.22346 0.94187 1.10967 1.02577 1.02577C1.10967 0.94187 1.22346 0.894737 1.34211 0.894737Z" fill="#5B5B5B"/>
</svg>
