<svg width="25" height="25" viewBox="0 0 25 25" fill="none" xmlns="http://www.w3.org/2000/svg">
<path d="M12.5 17C10 17 8 15 8 12.5C8 10 10 8 12.5 8C15 8 17 10 17 12.5C17 15 15 17 12.5 17ZM12.5 9C10.55 9 9 10.55 9 12.5C9 14.45 10.55 16 12.5 16C14.45 16 16 14.45 16 12.5C16 10.55 14.45 9 12.5 9Z" fill="#BBD708"/>
<path d="M13.8786 22H11.1715L10.4195 19.7C9.9182 19.55 9.41689 19.35 8.9657 19.1L6.75989 20.2L4.85488 18.3L5.95778 16.1C5.70712 15.65 5.5066 15.15 5.3562 14.65L3 13.85V11.15L5.30607 10.4C5.45646 9.9 5.65699 9.4 5.90765 8.95L4.80475 6.75L6.70976 4.85L8.91557 5.95C9.36675 5.7 9.86807 5.5 10.3694 5.35L11.1715 3H13.8786L14.6306 5.3C15.1319 5.45 15.6332 5.65 16.0844 5.9L18.2902 4.8L20.1952 6.7L19.0923 8.9C19.343 9.35 19.5435 9.85 19.6939 10.35L22 11.1V13.8L19.6939 14.55C19.5435 15.05 19.343 15.55 19.0923 16L20.1952 18.2L18.2902 20.1L16.0844 19C15.6332 19.25 15.1319 19.45 14.6306 19.6L13.8786 22ZM11.8734 21H13.1768L13.8786 18.85L14.1293 18.8C14.7309 18.65 15.2823 18.4 15.8338 18.1L16.0844 17.95L18.0897 18.95L18.9921 18.05L17.9894 16.05L18.1398 15.8C18.4406 15.3 18.6913 14.7 18.8417 14.1L18.8918 13.85L21.0475 13.15V11.85L18.8918 11.15L18.8417 10.9C18.6913 10.3 18.4406 9.75 18.1398 9.2L17.9894 8.95L18.9921 6.95L18.0897 6.05L16.0844 7.05L15.8338 6.9C15.2823 6.6 14.7309 6.35 14.1293 6.2L13.8786 6.15L13.1768 4H11.8734L11.1715 6.15L10.9208 6.2C10.3193 6.35 9.76781 6.6 9.21636 6.9L8.9657 7.05L6.96042 6.05L6.05805 6.95L7.06069 8.95L6.91029 9.2C6.6095 9.7 6.35884 10.3 6.20844 10.9L6.15831 11.15L4.00264 11.85V13.15L6.15831 13.85L6.20844 14.1C6.35884 14.7 6.6095 15.25 6.91029 15.8L7.06069 16.05L6.05805 18.05L6.96042 18.95L8.9657 17.95L9.21636 18.1C9.76781 18.4 10.3193 18.65 10.9208 18.8L11.1715 18.85L11.8734 21Z" fill="#BBD708"/>
</svg>
