<svg width="185" height="104" viewBox="0 0 185 104" fill="none" xmlns="http://www.w3.org/2000/svg">
<g filter="url(#filter0_f_194_2334)">
<path d="M28.0001 34.5C29.182 28 37.0001 27.5 40.0001 28.5C38.8334 28.3416 36.0999 29.0199 34.4999 33C32.8999 36.9801 33.4472 42.5651 34 44.5C35 48 35.499 53 43.4999 57C44.5 57.5 48.5002 60.5 61.5 60L66.9999 53.5C66.4999 51.8333 66.1999 47.7 68.9999 44.5C71.7999 41.3 78.1666 41.8333 80.9999 42.5C78.3332 42.8333 73.1999 45.5 73.9999 53.5C74.9999 63.5 78.9999 64 84.9999 66.5C89.7999 68.5 98.3332 68 102 67.5L115.5 59.5L157.5 62L117.5 63C111.5 66.5 99.5 74.5 95.5 76C92.122 77.2668 80 74.5 76.5 72C74.0211 70.2294 69.9999 61.5 68.9999 57C67.3332 60.1667 61.9999 66.5 61.9999 66.5C61.9999 66.5 59.6124 67.9019 50.4998 66.5C37.5 64.5 30.9999 56.5 31 56C31.0002 55.5 26 45.5 28.0001 34.5Z" fill="white"/>
<path d="M28.0001 34.5C29.182 28 37.0001 27.5 40.0001 28.5C38.8334 28.3416 36.0999 29.0199 34.4999 33C32.8999 36.9801 33.4472 42.5651 34 44.5C35 48 35.499 53 43.4999 57C44.5 57.5 48.5002 60.5 61.5 60L66.9999 53.5C66.4999 51.8333 66.1999 47.7 68.9999 44.5C71.7999 41.3 78.1666 41.8333 80.9999 42.5C78.3332 42.8333 73.1999 45.5 73.9999 53.5C74.9999 63.5 78.9999 64 84.9999 66.5C89.7999 68.5 98.3332 68 102 67.5L115.5 59.5L157.5 62L117.5 63C111.5 66.5 99.5 74.5 95.5 76C92.122 77.2668 80 74.5 76.5 72C74.0211 70.2294 69.9999 61.5 68.9999 57C67.3332 60.1667 61.9999 66.5 61.9999 66.5C61.9999 66.5 59.6124 67.9019 50.4998 66.5C37.5 64.5 30.9999 56.5 31 56C31.0002 55.5 26 45.5 28.0001 34.5Z" stroke="white" stroke-width="15" stroke-linejoin="round"/>
</g>
<defs>
<filter id="filter0_f_194_2334" x="0.027832" y="0.601257" width="184.972" height="103.218" filterUnits="userSpaceOnUse" color-interpolation-filters="sRGB">
<feFlood flood-opacity="0" result="BackgroundImageFix"/>
<feBlend mode="normal" in="SourceGraphic" in2="BackgroundImageFix" result="shape"/>
<feGaussianBlur stdDeviation="10" result="effect1_foregroundBlur_194_2334"/>
</filter>
</defs>
</svg>
