<svg width="50" height="46" viewBox="0 0 50 46" fill="none" xmlns="http://www.w3.org/2000/svg">
<path d="M27.1037 40.9594L27.1036 40.9595C24.8303 43.4278 21.0852 45.25 15.1768 45.25C9.26853 45.25 5.52687 43.4258 3.25347 40.9594L3.06964 41.1289L3.25345 40.9594C0.979903 38.4932 0.25 35.4617 0.25 33.2273C0.25 31.656 0.795237 30.1547 1.7574 29.0526C2.71862 27.9516 4.01445 27.3409 5.35714 27.3409H25C26.3427 27.3409 27.6385 27.9516 28.5997 29.0526C29.5619 30.1547 30.1071 31.656 30.1071 33.2273C30.1071 35.4617 29.3772 38.4932 27.1037 40.9594ZM26.2446 39.8132L26.0607 39.6439L26.2446 39.8132C28.212 37.6773 28.8214 35.0839 28.8214 33.2273C28.8214 32.0861 28.426 30.986 27.7137 30.1702C27.0005 29.3532 26.0253 28.8864 25 28.8864H5.35714C4.33183 28.8864 3.35664 29.3532 2.64343 30.1701C1.93116 30.986 1.53571 32.0861 1.53571 33.2273C1.53571 35.0839 2.14519 37.6773 4.11255 39.8132L4.11264 39.8133C6.08025 41.9471 9.48137 43.7045 15.1786 43.7045C20.8757 43.7045 24.2769 41.9492 26.2446 39.8132ZM47.4139 37.6383L47.4138 37.6383C45.5893 39.5893 42.5193 41.1591 37.5 41.1591C35.1196 41.1591 33.1782 40.8049 31.6031 40.2277C31.8373 39.7665 32.0444 39.3033 32.2244 38.8382C33.6223 39.3153 35.3555 39.6136 37.5 39.6136C42.3021 39.6136 45.0376 38.1152 46.5594 36.4866C48.095 34.8459 48.4643 33.0112 48.4643 32.2045C48.4643 31.3346 48.1629 30.4947 47.6181 29.8706C47.0723 29.2454 46.3242 28.8864 45.5357 28.8864H32.3625C32.1136 28.3379 31.8188 27.8206 31.4843 27.3409H45.5357C46.6416 27.3409 47.7103 27.8438 48.5041 28.7531C49.2988 29.6634 49.75 30.9045 49.75 32.2045C49.75 33.4453 49.2265 35.7015 47.4139 37.6383ZM7.51944 8.14256C7.10557 9.28706 6.89286 10.5128 6.89286 11.75C6.89286 14.2474 7.75865 16.6481 9.30813 18.423C10.8586 20.199 12.9693 21.2045 15.1786 21.2045C17.3879 21.2045 19.4986 20.199 21.049 18.423C22.5985 16.6481 23.4643 14.2474 23.4643 11.75C23.4643 10.5128 23.2516 9.28706 22.8377 8.14256C22.4238 6.99805 21.8165 5.95613 21.049 5.07699C20.2815 4.19779 19.3684 3.49827 18.3609 3.02024C17.3532 2.54215 16.2718 2.29545 15.1786 2.29545C14.0854 2.29545 13.0039 2.54215 11.9963 3.02024C10.9888 3.49827 10.0757 4.19779 9.30813 5.07699C8.54063 5.95613 7.93331 6.99805 7.51944 8.14256ZM8.4221 3.95946C10.2205 1.89944 12.6519 0.75 15.1786 0.75C17.7053 0.75 20.1366 1.89944 21.935 3.95946C23.7344 6.02057 24.75 8.82248 24.75 11.75C24.75 14.6775 23.7344 17.4794 21.935 19.5405C20.1366 21.6006 17.7053 22.75 15.1786 22.75C12.6519 22.75 10.2205 21.6006 8.4221 19.5405C6.62272 17.4794 5.60714 14.6775 5.60714 11.75C5.60714 8.82248 6.62272 6.02057 8.4221 3.95946ZM33.5236 10.3147C32.4764 11.5142 31.8929 13.1346 31.8929 14.8182C31.8929 16.5018 32.4764 18.1222 33.5236 19.3217C34.5717 20.5222 36.0011 21.2045 37.5 21.2045C38.9989 21.2045 40.4283 20.5222 41.4764 19.3217C42.5236 18.1222 43.1071 16.5018 43.1071 14.8182C43.1071 13.1346 42.5236 11.5142 41.4764 10.3147C40.4283 9.11415 38.9989 8.43182 37.5 8.43182C36.0011 8.43182 34.5717 9.11415 33.5236 10.3147ZM32.6376 9.19718C33.9337 7.71255 35.6837 6.88636 37.5 6.88636C39.3163 6.88636 41.0663 7.71255 42.3624 9.19718C43.6595 10.6829 44.3929 12.7044 44.3929 14.8182C44.3929 16.932 43.6595 18.9535 42.3624 20.4392C41.0663 21.9238 39.3163 22.75 37.5 22.75C35.6837 22.75 33.9337 21.9238 32.6376 20.4392C31.3405 18.9535 30.6071 16.932 30.6071 14.8182C30.6071 12.7044 31.3405 10.6829 32.6376 9.19718Z" fill="#242424" stroke="#242424" stroke-width="0.5"/>
</svg>
