<svg width="36" height="50" viewBox="0 0 36 50" fill="none" xmlns="http://www.w3.org/2000/svg">
<path d="M25.0002 48.3333L24.3539 49.304C24.5296 49.4209 24.7337 49.488 24.9445 49.498C25.1553 49.5081 25.3649 49.4608 25.5509 49.3612C25.7369 49.2616 25.8925 49.1134 26.001 48.9324C26.1094 48.7514 26.1668 48.5443 26.1669 48.3333H25.0002ZM18.0002 43.6666L18.6466 42.696C18.4551 42.5686 18.2302 42.5006 18.0002 42.5006C17.7702 42.5006 17.5454 42.5686 17.3539 42.696L18.0002 43.6666ZM11.0002 48.3333H9.83356C9.83367 48.5443 9.89102 48.7514 9.99949 48.9324C10.108 49.1134 10.2635 49.2616 10.4496 49.3612C10.6356 49.4608 10.8452 49.5081 11.056 49.498C11.2668 49.488 11.4709 49.4209 11.6466 49.304L11.0002 48.3333ZM25.6466 47.3626L18.6466 42.696L17.3539 44.6373L24.3539 49.304L25.6466 47.3626ZM17.3539 42.696L10.3539 47.3626L11.6466 49.304L18.6466 44.6373L17.3539 42.696ZM20.6672 4.26598L20.7652 4.38265L22.5409 2.87065L22.4429 2.75398L20.6672 4.26598ZM25.6746 6.41732L25.8262 6.40332L25.6396 4.07932L25.4879 4.09098L25.6746 6.41732ZM29.5946 10.174L29.5852 10.3257L31.9092 10.5123L31.9209 10.3607L29.5946 10.174ZM31.6176 15.235L31.7342 15.3353L33.2462 13.5573L33.1296 13.4593L31.6176 15.235ZM31.7342 20.667L31.6176 20.765L33.1296 22.5406L33.2462 22.4426L31.7342 20.667ZM29.5852 25.6743L29.5969 25.826L31.9209 25.6393L31.9092 25.4876L29.5852 25.6743ZM25.8286 29.5943L25.6746 29.5826L25.4879 31.909L25.6396 31.9206L25.8286 29.5943ZM20.7652 31.6173L20.6649 31.734L22.4429 33.246L22.5409 33.1293L20.7652 31.6173ZM15.3356 31.734L15.2352 31.6173L13.4596 33.1293L13.5576 33.246L15.3356 31.734ZM10.3259 29.585L10.1742 29.5967L10.3609 31.9206L10.5126 31.909L10.3259 29.585ZM6.4059 25.8283L6.41756 25.6743L4.09123 25.4876L4.07956 25.6393L6.4059 25.8283ZM4.3829 20.765L4.26623 20.6646L2.75423 22.4426L2.87089 22.5406L4.3829 20.765ZM4.26623 15.3353L4.3829 15.235L2.87089 13.4593L2.75423 13.5573L4.26623 15.3353ZM6.41756 10.3257L6.40356 10.174L4.07956 10.3607L4.09123 10.5123L6.41756 10.3257ZM10.1742 6.40565L10.3259 6.41732L10.5126 4.09098L10.3609 4.07932L10.1742 6.40565ZM15.2376 4.38265L15.3332 4.26598L13.5576 2.75398L13.4596 2.87065L15.2376 4.38265ZM10.3259 6.41732C11.2472 6.49157 12.173 6.34582 13.027 5.99206C13.881 5.63831 14.6386 5.08668 15.2376 4.38265L13.4596 2.87065C13.1002 3.29299 12.6455 3.62387 12.1332 3.83604C11.6208 4.04821 11.0653 4.13559 10.5126 4.09098L10.3259 6.41732ZM6.40356 10.174C6.36278 9.66887 6.4345 9.16092 6.60927 8.68524C6.78404 8.20957 7.06002 7.77753 7.41814 7.41897C7.77625 7.06041 8.20795 6.7839 8.68341 6.60854C9.15886 6.43318 9.66673 6.36316 10.1719 6.40332L10.3609 4.07932C9.51886 4.01173 8.66985 4.12784 7.87709 4.4196C7.08433 4.71137 6.3644 5.17184 5.76707 5.76916C5.16975 6.36649 4.70928 7.08642 4.41752 7.87918C4.12575 8.67194 4.01198 9.51861 4.07956 10.3607L6.40356 10.174ZM4.3829 15.235C5.08693 14.636 5.63855 13.8807 5.99231 13.0268C6.34606 12.1728 6.49182 11.247 6.41756 10.3257L4.09123 10.5123C4.13584 11.0651 4.04846 11.6205 3.83629 12.1329C3.62412 12.6453 3.29323 13.0999 2.87089 13.4593L4.3829 15.235ZM4.26623 20.6646C3.8804 20.3361 3.57053 19.9276 3.35804 19.4676C3.14554 19.0075 3.03549 18.5068 3.03549 18C3.03549 17.4932 3.14554 16.9925 3.35804 16.5324C3.57053 16.0723 3.8804 15.6639 4.26623 15.3353L2.75423 13.5573C2.11065 14.1049 1.59374 14.7858 1.23925 15.5529C0.884766 16.32 0.701172 17.155 0.701172 18C0.701172 18.845 0.884766 19.68 1.23925 20.447C1.59374 21.2141 2.11065 21.895 2.75423 22.4426L4.26623 20.6646ZM6.41756 25.6743C6.49144 24.7534 6.3455 23.828 5.99176 22.9745C5.63801 22.121 5.08659 21.3637 4.3829 20.765L2.87089 22.5406C3.29323 22.9001 3.62412 23.3547 3.83629 23.8671C4.04846 24.3794 4.13584 24.9349 4.09123 25.4876L6.41756 25.6743ZM10.1742 29.5943C9.6689 29.6351 9.16073 29.5657 8.68488 29.3908C8.20903 29.2159 7.77686 28.9397 7.41826 28.5813C7.05966 28.2229 6.7832 27.7909 6.608 27.3152C6.4328 26.8395 6.36305 26.3313 6.40356 25.826L4.07956 25.6393C4.01162 26.4815 4.12746 27.3285 4.41907 28.1215C4.71067 28.9146 5.17108 29.6348 5.76845 30.2324C6.36582 30.83 7.08588 31.2907 7.87882 31.5826C8.67176 31.8745 9.51865 31.9906 10.3609 31.923L10.1742 29.5943ZM20.6649 31.734C20.3363 32.1198 19.9279 32.4297 19.4678 32.6422C19.0077 32.8547 18.507 32.9647 18.0002 32.9647C17.4935 32.9647 16.9927 32.8547 16.5326 32.6422C16.0726 32.4297 15.6641 32.1198 15.3356 31.734L13.5576 33.246C14.1052 33.8896 14.7861 34.4065 15.5532 34.761C16.3203 35.1154 17.1552 35.299 18.0002 35.299C18.8453 35.299 19.6802 35.1154 20.4473 34.761C21.2144 34.4065 21.8953 33.8896 22.4429 33.246L20.6649 31.734ZM29.5969 25.826C29.6378 26.3315 29.5683 26.8399 29.3932 27.3159C29.2182 27.792 28.9418 28.2243 28.5832 28.5829C28.2245 28.9415 27.7922 29.218 27.3162 29.393C26.8402 29.568 26.3318 29.6375 25.8262 29.5967L25.6396 31.9206C26.4818 31.9886 27.3287 31.8728 28.1218 31.5811C28.9148 31.2895 29.635 30.8291 30.2326 30.2318C30.8302 29.6344 31.2909 28.9143 31.5828 28.1214C31.8747 27.3285 31.9885 26.4816 31.9209 25.6393L29.5969 25.826ZM31.6176 20.7626C30.914 21.3618 30.3628 22.1196 30.0094 22.9735C29.6561 23.8275 29.5107 24.7532 29.5852 25.6743L31.9092 25.4876C31.8646 24.9349 31.952 24.3794 32.1642 23.8671C32.3763 23.3547 32.7072 22.9001 33.1296 22.5406L31.6176 20.7626ZM31.7342 15.3353C32.1201 15.6639 32.4299 16.0723 32.6424 16.5324C32.8549 16.9925 32.965 17.4932 32.965 18C32.965 18.5068 32.8549 19.0075 32.6424 19.4676C32.4299 19.9276 32.1201 20.3384 31.7342 20.667L33.2462 22.4426C33.8898 21.895 34.4067 21.2141 34.7612 20.447C35.1157 19.68 35.2993 18.845 35.2993 18C35.2993 17.155 35.1157 16.32 34.7612 15.5529C34.4067 14.7858 33.8898 14.1049 33.2462 13.5573L31.7342 15.3353ZM29.5852 10.3257C29.5111 11.2464 29.6567 12.1716 30.01 13.0251C30.3633 13.8787 30.9143 14.636 31.6176 15.235L33.1296 13.4593C32.7072 13.0999 32.3763 12.6453 32.1642 12.1329C31.952 11.6205 31.8646 11.0651 31.9092 10.5123L29.5852 10.3257ZM25.8286 6.40565C26.3337 6.36518 26.8416 6.43489 27.3172 6.60995C27.7927 6.78502 28.2246 7.06126 28.583 7.4196C28.9413 7.77793 29.2175 8.20981 29.3926 8.68537C29.5677 9.16093 29.635 9.66884 29.5946 10.174L31.9209 10.3607C31.9885 9.5184 31.8747 8.67151 31.5828 7.87857C31.2909 7.08563 30.8302 6.36557 30.2326 5.76821C29.635 5.17084 28.9148 4.71043 28.1218 4.41882C27.3287 4.12722 26.4818 4.01138 25.6396 4.07932L25.8286 6.40565ZM20.7652 4.38265C21.3639 5.08635 22.1212 5.63777 22.9747 5.99151C23.8283 6.34525 24.7536 6.49119 25.6746 6.41732L25.4879 4.09098C24.9351 4.13559 24.3797 4.04821 23.8673 3.83604C23.3549 3.62387 22.9003 3.29299 22.5409 2.87065L20.7652 4.38265ZM22.4429 2.75398C21.8953 2.11041 21.2144 1.5935 20.4473 1.23901C19.6802 0.884523 18.8453 0.700928 18.0002 0.700928C17.1552 0.700928 16.3203 0.884523 15.5532 1.23901C14.7861 1.5935 14.1052 2.11041 13.5576 2.75398L15.3332 4.26598C15.6618 3.88016 16.0726 3.57029 16.5326 3.35779C16.9927 3.1453 17.4935 3.03525 18.0002 3.03525C18.507 3.03525 19.0077 3.1453 19.4678 3.35779C19.9279 3.57029 20.3387 3.88016 20.6672 4.26598L22.4429 2.75398ZM15.2376 31.6173C14.7179 31.0069 14.078 30.5101 13.3577 30.1581C12.6375 29.806 11.8525 29.6038 11.0516 29.5686L10.9489 31.902C11.4292 31.9231 11.9001 32.043 12.332 32.2542C12.764 32.4654 13.1478 32.7633 13.4596 33.1293L15.2376 31.6173ZM11.0516 29.5686C10.8096 29.56 10.5674 29.5662 10.3259 29.5826L10.5126 31.909C10.6588 31.8965 10.8042 31.8942 10.9489 31.902L11.0516 29.5686ZM12.1669 48.3333V30.7353H9.83356V48.3333H12.1669ZM25.6769 29.5826C25.4346 29.5661 25.1916 29.5622 24.9489 29.571L25.0516 31.902C25.1962 31.8942 25.3417 31.8965 25.4879 31.909L25.6769 29.5826ZM24.9489 29.571C24.1484 29.6064 23.3638 29.8064 22.644 30.1585C21.9242 30.5106 21.2846 31.0072 20.7652 31.6173L22.5409 33.1293C22.8526 32.7633 23.2365 32.4654 23.6684 32.2542C24.1004 32.043 24.5712 31.9231 25.0516 31.902L24.9489 29.571ZM23.8336 30.7376V48.3333H26.1669V30.7353L23.8336 30.7376Z" fill="#242424"/>
<path d="M22.6668 15.6667L15.6668 22.6667L13.3335 20.3334" stroke="#242424" stroke-linecap="round" stroke-linejoin="round"/>
</svg>
