<svg width="52" height="52" viewBox="0 0 52 52" fill="none" xmlns="http://www.w3.org/2000/svg">
<path d="M18.5 31H26M21 26V16.5C21 16.035 21 15.8025 21.03 15.61C21.1123 15.0879 21.358 14.6054 21.7317 14.2317C22.1054 13.858 22.5879 13.6123 23.11 13.53C23.3 13.5 23.535 13.5 24 13.5H29.75C31.4076 13.5 32.9973 14.1585 34.1694 15.3306C35.3415 16.5027 36 18.0924 36 19.75C36 21.4076 35.3415 22.9973 34.1694 24.1694C32.9973 25.3415 31.4076 26 29.75 26H21ZM21 26V38.5M21 26H18.5" stroke="#242424" stroke-width="2" stroke-linecap="round"/>
<path d="M13.5 4.34503C17.2986 2.14684 21.6112 0.992796 26 1.00003C39.8075 1.00003 51 12.1925 51 26C51 39.8075 39.8075 51 26 51C12.1925 51 1 39.8075 1 26C1 21.4475 2.2175 17.175 4.345 13.5" stroke="#242424" stroke-width="2" stroke-linecap="round"/>
</svg>
