<svg width="435" height="591" viewBox="0 0 435 591" fill="none" xmlns="http://www.w3.org/2000/svg">
<path d="M137.5 182L139.486 183.519L142.062 180.15L137.867 179.527L137.5 182ZM286.5 395L288.955 395.473L289.467 392.811L286.773 392.515L286.5 395ZM435 581.5L413.602 562.123L407.52 590.343L435 581.5ZM14.0773 0.749358C13.2327 2.21123 12.4277 3.69522 11.6624 5.19969L16.1189 7.46667C16.8442 6.04089 17.6069 4.63505 18.4067 3.25064L14.0773 0.749358ZM7.55449 14.4445C6.35034 17.5841 5.30457 20.7917 4.41851 24.0547L9.24376 25.365C10.0863 22.2625 11.0799 19.2152 12.2229 16.235L7.55449 14.4445ZM2.2534 33.9218C1.69544 37.2243 1.29299 40.5682 1.04734 43.9416L6.03413 44.3047C6.26845 41.0871 6.65213 37.9 7.18353 34.7547L2.2534 33.9218ZM0.779857 54.0291C0.84412 57.3675 1.05898 60.7229 1.42566 64.0843L6.39618 63.5421C6.04555 60.3279 5.84031 57.1214 5.77893 53.9329L0.779857 54.0291ZM2.95742 74.0498C3.60639 77.3176 4.39992 80.5808 5.33918 83.8295L10.1424 82.4407C9.24262 79.3285 8.48281 76.2036 7.86165 73.0758L2.95742 74.0498ZM8.53892 93.374C9.72829 96.4845 11.0556 99.5719 12.5218 102.627L17.0296 100.464C15.6226 97.532 14.3495 94.5706 13.2092 91.5883L8.53892 93.374ZM17.2312 111.503C18.9029 114.369 20.7038 117.198 22.6349 119.98L26.7424 117.129C24.8862 114.455 23.1559 111.737 21.5504 108.984L17.2312 111.503ZM28.686 128.015C30.7778 130.582 32.9894 133.099 35.3216 135.559L38.95 132.118C36.7036 129.749 34.5745 127.326 32.5618 124.857L28.686 128.015ZM42.4825 142.58C44.9209 144.804 47.4685 146.97 50.126 149.072L53.2282 145.151C50.662 143.121 48.2035 141.03 45.8519 138.886L42.4825 142.58ZM58.1962 155.023C60.9115 156.888 63.7253 158.691 66.6383 160.426L69.1971 156.13C66.3759 154.45 63.6529 152.705 61.0271 150.902L58.1962 155.023ZM75.399 165.282C78.3205 166.787 81.33 168.227 84.428 169.599L86.4529 165.028C83.4434 163.695 80.522 162.296 77.6882 160.837L75.399 165.282ZM93.6791 173.391C96.745 174.55 99.8889 175.645 103.111 176.673L104.631 171.91C101.491 170.908 98.4301 169.841 95.4472 168.714L93.6791 173.391ZM112.688 179.468C115.849 180.306 119.08 181.083 122.379 181.796L123.435 176.908C120.21 176.212 117.055 175.453 113.97 174.635L112.688 179.468ZM132.161 183.681C133.802 183.96 135.46 184.225 137.133 184.473L137.867 179.527C136.229 179.284 134.606 179.025 133 178.752L132.161 183.681ZM135.514 180.481C134.525 181.775 133.561 183.199 132.629 184.74L136.908 187.327C137.757 185.923 138.619 184.652 139.486 183.519L135.514 180.481ZM128.074 193.793C126.85 196.696 125.711 199.84 124.68 203.19L129.459 204.66C130.444 201.458 131.527 198.473 132.681 195.736L128.074 193.793ZM122.139 212.89C121.451 216.021 120.856 219.282 120.366 222.654L125.315 223.372C125.787 220.118 126.361 216.975 127.023 213.962L122.139 212.89ZM119.273 232.544C119.024 235.789 118.875 239.111 118.837 242.494L123.836 242.551C123.873 239.277 124.018 236.064 124.258 232.927L119.273 232.544ZM119.046 252.429C119.221 255.69 119.501 258.992 119.898 262.324L124.863 261.732C124.479 258.51 124.208 255.316 124.039 252.162L119.046 252.429ZM121.399 272.149C122.002 275.372 122.719 278.612 123.557 281.858L128.398 280.607C127.589 277.474 126.897 274.344 126.314 271.23L121.399 272.149ZM126.38 291.401C127.421 294.516 128.582 297.627 129.869 300.724L134.486 298.805C133.245 295.82 132.126 292.82 131.122 289.816L126.38 291.401ZM134.023 309.774C135.5 312.706 137.1 315.616 138.829 318.497L143.116 315.924C141.451 313.15 139.911 310.348 138.488 307.524L134.023 309.774ZM144.265 326.84C146.153 329.515 148.162 332.157 150.299 334.756L154.162 331.582C152.103 329.077 150.168 326.533 148.35 323.957L144.265 326.84ZM156.891 342.209C159.14 344.574 161.506 346.897 163.993 349.169L167.366 345.479C164.965 343.285 162.683 341.044 160.514 338.764L156.891 342.209ZM171.556 355.623C174.104 357.654 176.762 359.636 179.532 361.565L182.39 357.462C179.707 355.594 177.135 353.676 174.672 351.712L171.556 355.623ZM187.88 367.003C190.645 368.687 193.51 370.322 196.476 371.903L198.828 367.491C195.945 365.954 193.164 364.366 190.481 362.732L187.88 367.003ZM205.307 376.31C208.243 377.679 211.268 378.999 214.384 380.268L216.269 375.636C213.228 374.399 210.279 373.112 207.421 371.779L205.307 376.31ZM223.701 383.804C226.727 384.873 229.832 385.896 233.018 386.871L234.48 382.09C231.362 381.135 228.324 380.135 225.367 379.09L223.701 383.804ZM242.505 389.565C245.659 390.394 248.887 391.178 252.189 391.915L253.278 387.035C250.036 386.311 246.869 385.542 243.776 384.729L242.505 389.565ZM261.741 393.875C264.93 394.473 268.185 395.03 271.507 395.544L272.271 390.603C269.002 390.097 265.799 389.549 262.663 388.96L261.741 393.875ZM281.227 396.899C282.878 397.105 284.545 397.3 286.227 397.485L286.773 392.515C285.115 392.333 283.472 392.14 281.845 391.938L281.227 396.899ZM284.045 394.527C283.722 396.203 283.411 397.865 283.111 399.513L288.03 400.407C288.327 398.777 288.635 397.132 288.955 395.473L284.045 394.527ZM281.426 409.419C280.892 412.799 280.414 416.118 279.993 419.377L284.952 420.017C285.367 416.807 285.838 413.535 286.364 410.198L281.426 409.419ZM278.866 429.384C278.54 432.803 278.285 436.153 278.104 439.437L283.097 439.712C283.274 436.499 283.523 433.216 283.843 429.859L278.866 429.384ZM277.784 449.521C277.759 452.978 277.828 456.358 277.994 459.663L282.988 459.411C282.827 456.208 282.76 452.924 282.784 449.556L277.784 449.521ZM278.844 469.8C279.254 473.234 279.786 476.583 280.445 479.848L285.346 478.858C284.715 475.732 284.204 472.516 283.809 469.207L278.844 469.8ZM282.921 489.763C283.915 493.071 285.062 496.285 286.367 499.411L290.981 497.483C289.744 494.523 288.656 491.472 287.709 488.324L282.921 489.763ZM290.834 508.643C292.489 511.626 294.311 514.518 296.308 517.323L300.381 514.423C298.493 511.771 296.77 509.037 295.207 506.218L290.834 508.643ZM302.708 525.344C304.935 527.848 307.322 530.273 309.874 532.625L313.262 528.949C310.828 526.705 308.557 524.397 306.444 522.021L302.708 525.344ZM317.691 539.206C320.316 541.23 323.083 543.195 325.993 545.105L328.737 540.925C325.926 539.081 323.263 537.189 320.743 535.246L317.691 539.206ZM334.639 550.377C337.498 552 340.476 553.58 343.576 555.121L345.801 550.643C342.779 549.141 339.882 547.603 337.107 546.029L334.639 550.377ZM352.728 559.4C355.731 560.722 358.835 562.014 362.042 563.277L363.874 558.625C360.725 557.385 357.682 556.118 354.743 554.824L352.728 559.4ZM371.475 566.806C374.564 567.904 377.74 568.979 381.004 570.034L382.541 565.276C379.321 564.236 376.191 563.176 373.15 562.095L371.475 566.806ZM390.611 573.003C393.76 573.935 396.985 574.85 400.287 575.749L401.601 570.924C398.332 570.034 395.142 569.129 392.029 568.209L390.611 573.003ZM410.032 578.301C413.21 579.102 416.454 579.89 419.766 580.666L420.907 575.798C417.621 575.028 414.404 574.246 411.254 573.452L410.032 578.301Z" fill="#BBD708"/>
</svg>
